<mxfile host="app.diagrams.net" modified="2024-03-10T10:46:33.774Z" agent="Mozilla/5.0 (Windows NT 10.0; Win64; x64; rv:123.0) Gecko/20100101 Firefox/123.0" etag="B5bUdIH9ueaGT_b2wUVJ" version="24.0.2" type="device">
  <diagram name="Page-1" id="cljK4marX0H_0Wo7QZ13">
    <mxGraphModel dx="2612" dy="1594" grid="0" gridSize="10" guides="1" tooltips="1" connect="1" arrows="1" fold="1" page="0" pageScale="1" pageWidth="827" pageHeight="1169" background="#080808" math="0" shadow="0">
      <root>
        <mxCell id="0" />
        <mxCell id="1" parent="0" />
        <mxCell id="zmGrfXzdcfrjOC3Is10e-1" value="&lt;div style=&quot;font-size: 32px;&quot;&gt;&lt;font style=&quot;font-size: 32px;&quot;&gt;UI Layer&lt;br&gt;&lt;/font&gt;&lt;/div&gt;&lt;div style=&quot;font-size: 32px;&quot;&gt;&lt;font style=&quot;font-size: 32px;&quot;&gt;&lt;br&gt;&lt;/font&gt;&lt;/div&gt;" style="text;html=1;align=center;verticalAlign=middle;whiteSpace=wrap;rounded=0;fontSize=16;fontColor=#FCFCFC;" parent="1" vertex="1">
          <mxGeometry x="-463" y="-23" width="60" height="30" as="geometry" />
        </mxCell>
        <mxCell id="zmGrfXzdcfrjOC3Is10e-2" value="&lt;div style=&quot;font-size: 32px;&quot;&gt;&lt;font style=&quot;font-size: 32px;&quot;&gt;Data Layer&lt;/font&gt;&lt;/div&gt;&lt;div style=&quot;font-size: 32px;&quot;&gt;&lt;font style=&quot;font-size: 32px;&quot;&gt;&lt;br&gt;&lt;/font&gt;&lt;/div&gt;" style="text;html=1;align=center;verticalAlign=middle;whiteSpace=wrap;rounded=0;fontSize=16;strokeWidth=4;fontColor=#FCFCFC;" parent="1" vertex="1">
          <mxGeometry x="-455" y="195" width="60" height="30" as="geometry" />
        </mxCell>
        <mxCell id="zmGrfXzdcfrjOC3Is10e-9" value="" style="rounded=0;whiteSpace=wrap;html=1;fillColor=none;strokeColor=#FFF4F2;fontColor=#FFFFFF;" parent="1" vertex="1">
          <mxGeometry x="63" y="28" width="143" height="64" as="geometry" />
        </mxCell>
        <mxCell id="zmGrfXzdcfrjOC3Is10e-11" value="" style="rounded=0;whiteSpace=wrap;html=1;fillColor=none;strokeColor=#FFF4F2;fontColor=#FFFFFF;" parent="1" vertex="1">
          <mxGeometry x="-41" y="289" width="120" height="60" as="geometry" />
        </mxCell>
        <mxCell id="zmGrfXzdcfrjOC3Is10e-24" value="" style="edgeStyle=none;curved=1;rounded=0;orthogonalLoop=1;jettySize=auto;html=1;fontSize=12;startSize=8;endSize=8;fillColor=none;strokeColor=#FFF4F2;fontColor=#FFFFFF;" parent="1" target="zmGrfXzdcfrjOC3Is10e-22" edge="1">
          <mxGeometry relative="1" as="geometry">
            <mxPoint x="19" y="444" as="sourcePoint" />
          </mxGeometry>
        </mxCell>
        <mxCell id="zmGrfXzdcfrjOC3Is10e-12" value="&lt;div&gt;Local repository&lt;/div&gt;&lt;div&gt;&lt;br&gt;&lt;/div&gt;" style="text;html=1;align=center;verticalAlign=middle;whiteSpace=wrap;rounded=0;fontSize=16;fillColor=none;strokeColor=none;fontColor=#FFFFFF;" parent="1" vertex="1">
          <mxGeometry x="-10" y="317" width="52" height="25" as="geometry" />
        </mxCell>
        <mxCell id="zmGrfXzdcfrjOC3Is10e-13" value="" style="rounded=0;whiteSpace=wrap;html=1;fillColor=none;strokeColor=#FFF4F2;fontColor=#FFFFFF;" parent="1" vertex="1">
          <mxGeometry x="-41" y="382" width="120" height="60" as="geometry" />
        </mxCell>
        <mxCell id="zmGrfXzdcfrjOC3Is10e-14" value="Repository interface" style="text;html=1;align=center;verticalAlign=middle;whiteSpace=wrap;rounded=0;fontSize=16;fillColor=none;strokeColor=none;fontColor=#FFFFFF;" parent="1" vertex="1">
          <mxGeometry x="-11" y="397" width="60" height="30" as="geometry" />
        </mxCell>
        <mxCell id="zmGrfXzdcfrjOC3Is10e-17" value="" style="endArrow=classic;html=1;rounded=0;fontSize=12;startSize=8;endSize=8;exitX=0.511;exitY=1.367;exitDx=0;exitDy=0;exitPerimeter=0;fillColor=none;strokeColor=#FFF4F2;fontColor=#FFFFFF;" parent="1" edge="1">
          <mxGeometry width="50" height="50" relative="1" as="geometry">
            <mxPoint x="18.889999999999986" y="349" as="sourcePoint" />
            <mxPoint x="18.889999999999986" y="381" as="targetPoint" />
          </mxGeometry>
        </mxCell>
        <mxCell id="zmGrfXzdcfrjOC3Is10e-18" value="" style="endArrow=none;dashed=1;html=1;dashPattern=1 3;strokeWidth=2;rounded=0;fontSize=12;startSize=8;endSize=8;curved=1;fillColor=#ffcc99;strokeColor=#F7FFFE;" parent="1" edge="1">
          <mxGeometry width="50" height="50" relative="1" as="geometry">
            <mxPoint x="-462" y="137" as="sourcePoint" />
            <mxPoint x="1010" y="137" as="targetPoint" />
          </mxGeometry>
        </mxCell>
        <mxCell id="zmGrfXzdcfrjOC3Is10e-21" value="ViewModel" style="text;html=1;align=center;verticalAlign=middle;whiteSpace=wrap;rounded=0;fontSize=16;fillColor=none;strokeColor=none;fontColor=#FFFFFF;" parent="1" vertex="1">
          <mxGeometry x="104.5" y="57" width="60" height="30" as="geometry" />
        </mxCell>
        <mxCell id="zmGrfXzdcfrjOC3Is10e-22" value="" style="rounded=0;whiteSpace=wrap;html=1;fillColor=none;strokeColor=#FFF4F2;fontColor=#FFFFFF;" parent="1" vertex="1">
          <mxGeometry x="-41" y="487" width="122" height="89" as="geometry" />
        </mxCell>
        <mxCell id="zmGrfXzdcfrjOC3Is10e-23" value="Step count Offline Database" style="text;html=1;align=center;verticalAlign=middle;whiteSpace=wrap;rounded=0;fontSize=16;fillColor=none;strokeColor=none;fontColor=#FFFFFF;" parent="1" vertex="1">
          <mxGeometry x="-10" y="514" width="60" height="30" as="geometry" />
        </mxCell>
        <mxCell id="zmGrfXzdcfrjOC3Is10e-27" value="Logic" style="text;html=1;align=center;verticalAlign=middle;whiteSpace=wrap;rounded=0;fontSize=16;fillColor=none;strokeColor=none;fontColor=#FFFFFF;" parent="1" vertex="1">
          <mxGeometry x="100.5" y="36" width="63.5" height="30" as="geometry" />
        </mxCell>
        <mxCell id="zmGrfXzdcfrjOC3Is10e-28" value="" style="rounded=0;whiteSpace=wrap;html=1;fillColor=none;strokeColor=#FFF4F2;fontColor=#FFFFFF;" parent="1" vertex="1">
          <mxGeometry x="128" y="289" width="120" height="60" as="geometry" />
        </mxCell>
        <mxCell id="zmGrfXzdcfrjOC3Is10e-29" value="" style="edgeStyle=none;curved=1;rounded=0;orthogonalLoop=1;jettySize=auto;html=1;fontSize=12;startSize=8;endSize=8;fillColor=none;strokeColor=#FFF4F2;fontColor=#FFFFFF;" parent="1" target="zmGrfXzdcfrjOC3Is10e-34" edge="1">
          <mxGeometry relative="1" as="geometry">
            <mxPoint x="188" y="444" as="sourcePoint" />
          </mxGeometry>
        </mxCell>
        <mxCell id="zmGrfXzdcfrjOC3Is10e-30" value="&lt;div&gt;Local repository&lt;/div&gt;&lt;div&gt;&lt;br&gt;&lt;/div&gt;" style="text;html=1;align=center;verticalAlign=middle;whiteSpace=wrap;rounded=0;fontSize=16;fillColor=none;strokeColor=none;fontColor=#FFFFFF;" parent="1" vertex="1">
          <mxGeometry x="159" y="317" width="52" height="25" as="geometry" />
        </mxCell>
        <mxCell id="zmGrfXzdcfrjOC3Is10e-31" value="" style="rounded=0;whiteSpace=wrap;html=1;fillColor=none;strokeColor=#FFF4F2;fontColor=#FFFFFF;" parent="1" vertex="1">
          <mxGeometry x="128" y="382" width="120" height="60" as="geometry" />
        </mxCell>
        <mxCell id="zmGrfXzdcfrjOC3Is10e-32" value="Repository interface" style="text;html=1;align=center;verticalAlign=middle;whiteSpace=wrap;rounded=0;fontSize=16;fillColor=none;strokeColor=none;fontColor=#FFFFFF;" parent="1" vertex="1">
          <mxGeometry x="158" y="397" width="60" height="30" as="geometry" />
        </mxCell>
        <mxCell id="zmGrfXzdcfrjOC3Is10e-33" value="" style="endArrow=classic;html=1;rounded=0;fontSize=12;startSize=8;endSize=8;exitX=0.511;exitY=1.367;exitDx=0;exitDy=0;exitPerimeter=0;fillColor=none;strokeColor=#FFF4F2;fontColor=#FFFFFF;" parent="1" edge="1">
          <mxGeometry width="50" height="50" relative="1" as="geometry">
            <mxPoint x="187.89" y="349" as="sourcePoint" />
            <mxPoint x="187.89" y="381" as="targetPoint" />
          </mxGeometry>
        </mxCell>
        <mxCell id="zmGrfXzdcfrjOC3Is10e-34" value="" style="rounded=0;whiteSpace=wrap;html=1;fillColor=none;strokeColor=#FFF4F2;fontColor=#FFFFFF;" parent="1" vertex="1">
          <mxGeometry x="128" y="487" width="122" height="89" as="geometry" />
        </mxCell>
        <mxCell id="zmGrfXzdcfrjOC3Is10e-35" value="KCal count Offline Database" style="text;html=1;align=center;verticalAlign=middle;whiteSpace=wrap;rounded=0;fontSize=16;fillColor=none;strokeColor=none;fontColor=#FFFFFF;" parent="1" vertex="1">
          <mxGeometry x="159" y="514" width="60" height="30" as="geometry" />
        </mxCell>
        <mxCell id="zmGrfXzdcfrjOC3Is10e-36" value="" style="rounded=0;whiteSpace=wrap;html=1;fillColor=none;strokeColor=#FFF4F2;fontColor=#FFFFFF;" parent="1" vertex="1">
          <mxGeometry x="289" y="289" width="120" height="60" as="geometry" />
        </mxCell>
        <mxCell id="zmGrfXzdcfrjOC3Is10e-37" value="" style="edgeStyle=none;curved=1;rounded=0;orthogonalLoop=1;jettySize=auto;html=1;fontSize=12;startSize=8;endSize=8;fillColor=none;strokeColor=#FFF4F2;fontColor=#FFFFFF;" parent="1" target="zmGrfXzdcfrjOC3Is10e-42" edge="1">
          <mxGeometry relative="1" as="geometry">
            <mxPoint x="349" y="444" as="sourcePoint" />
          </mxGeometry>
        </mxCell>
        <mxCell id="zmGrfXzdcfrjOC3Is10e-38" value="&lt;div&gt;Local repository&lt;/div&gt;&lt;div&gt;&lt;br&gt;&lt;/div&gt;" style="text;html=1;align=center;verticalAlign=middle;whiteSpace=wrap;rounded=0;fontSize=16;fillColor=none;strokeColor=none;fontColor=#FFFFFF;" parent="1" vertex="1">
          <mxGeometry x="320" y="317" width="52" height="25" as="geometry" />
        </mxCell>
        <mxCell id="zmGrfXzdcfrjOC3Is10e-39" value="" style="rounded=0;whiteSpace=wrap;html=1;fillColor=none;strokeColor=#FFF4F2;fontColor=#FFFFFF;" parent="1" vertex="1">
          <mxGeometry x="289" y="382" width="120" height="60" as="geometry" />
        </mxCell>
        <mxCell id="zmGrfXzdcfrjOC3Is10e-40" value="Repository interface" style="text;html=1;align=center;verticalAlign=middle;whiteSpace=wrap;rounded=0;fontSize=16;fillColor=none;strokeColor=none;fontColor=#FFFFFF;" parent="1" vertex="1">
          <mxGeometry x="319" y="397" width="60" height="30" as="geometry" />
        </mxCell>
        <mxCell id="zmGrfXzdcfrjOC3Is10e-41" value="" style="endArrow=classic;html=1;rounded=0;fontSize=12;startSize=8;endSize=8;exitX=0.511;exitY=1.367;exitDx=0;exitDy=0;exitPerimeter=0;fillColor=none;strokeColor=#FFF4F2;fontColor=#FFFFFF;" parent="1" edge="1">
          <mxGeometry width="50" height="50" relative="1" as="geometry">
            <mxPoint x="348.89" y="349" as="sourcePoint" />
            <mxPoint x="348.89" y="381" as="targetPoint" />
          </mxGeometry>
        </mxCell>
        <mxCell id="zmGrfXzdcfrjOC3Is10e-42" value="" style="rounded=0;whiteSpace=wrap;html=1;fillColor=none;strokeColor=#FFF4F2;fontColor=#FFFFFF;" parent="1" vertex="1">
          <mxGeometry x="289" y="487" width="122" height="89" as="geometry" />
        </mxCell>
        <mxCell id="zmGrfXzdcfrjOC3Is10e-43" value="&lt;div&gt;Hydration count Offline Database&lt;/div&gt;" style="text;html=1;align=center;verticalAlign=middle;whiteSpace=wrap;rounded=0;fontSize=16;fillColor=none;strokeColor=none;fontColor=#FFFFFF;" parent="1" vertex="1">
          <mxGeometry x="320" y="514" width="60" height="30" as="geometry" />
        </mxCell>
        <mxCell id="zmGrfXzdcfrjOC3Is10e-44" value="" style="rounded=0;whiteSpace=wrap;html=1;fillColor=none;strokeColor=#FFF4F2;fontColor=#FFFFFF;" parent="1" vertex="1">
          <mxGeometry x="447" y="286" width="120" height="60" as="geometry" />
        </mxCell>
        <mxCell id="zmGrfXzdcfrjOC3Is10e-45" value="" style="edgeStyle=none;curved=1;rounded=0;orthogonalLoop=1;jettySize=auto;html=1;fontSize=12;startSize=8;endSize=8;fillColor=none;strokeColor=#FFF4F2;fontColor=#FFFFFF;" parent="1" target="zmGrfXzdcfrjOC3Is10e-50" edge="1">
          <mxGeometry relative="1" as="geometry">
            <mxPoint x="507" y="441" as="sourcePoint" />
          </mxGeometry>
        </mxCell>
        <mxCell id="zmGrfXzdcfrjOC3Is10e-46" value="&lt;div&gt;Local repository&lt;/div&gt;&lt;div&gt;&lt;br&gt;&lt;/div&gt;" style="text;html=1;align=center;verticalAlign=middle;whiteSpace=wrap;rounded=0;fontSize=16;fillColor=none;strokeColor=none;fontColor=#FFFFFF;" parent="1" vertex="1">
          <mxGeometry x="478" y="314" width="52" height="25" as="geometry" />
        </mxCell>
        <mxCell id="zmGrfXzdcfrjOC3Is10e-47" value="" style="rounded=0;whiteSpace=wrap;html=1;fillColor=none;strokeColor=#FFF4F2;fontColor=#FFFFFF;" parent="1" vertex="1">
          <mxGeometry x="447" y="379" width="120" height="60" as="geometry" />
        </mxCell>
        <mxCell id="zmGrfXzdcfrjOC3Is10e-48" value="Repository interface" style="text;html=1;align=center;verticalAlign=middle;whiteSpace=wrap;rounded=0;fontSize=16;fillColor=none;strokeColor=none;fontColor=#FFFFFF;" parent="1" vertex="1">
          <mxGeometry x="477" y="394" width="60" height="30" as="geometry" />
        </mxCell>
        <mxCell id="zmGrfXzdcfrjOC3Is10e-49" value="" style="endArrow=classic;html=1;rounded=0;fontSize=12;startSize=8;endSize=8;exitX=0.511;exitY=1.367;exitDx=0;exitDy=0;exitPerimeter=0;fillColor=none;strokeColor=#FFF4F2;fontColor=#FFFFFF;" parent="1" edge="1">
          <mxGeometry width="50" height="50" relative="1" as="geometry">
            <mxPoint x="506.89" y="346" as="sourcePoint" />
            <mxPoint x="506.89" y="378" as="targetPoint" />
          </mxGeometry>
        </mxCell>
        <mxCell id="zmGrfXzdcfrjOC3Is10e-50" value="" style="rounded=0;whiteSpace=wrap;html=1;fillColor=none;strokeColor=#FFF4F2;fontColor=#FFFFFF;" parent="1" vertex="1">
          <mxGeometry x="447" y="484" width="122" height="89" as="geometry" />
        </mxCell>
        <mxCell id="zmGrfXzdcfrjOC3Is10e-51" value="Fruit/veg count Offline Database" style="text;html=1;align=center;verticalAlign=middle;whiteSpace=wrap;rounded=0;fontSize=16;fillColor=none;strokeColor=none;fontColor=#FFFFFF;" parent="1" vertex="1">
          <mxGeometry x="478" y="511" width="60" height="30" as="geometry" />
        </mxCell>
        <mxCell id="zmGrfXzdcfrjOC3Is10e-52" value="" style="rounded=0;whiteSpace=wrap;html=1;fillColor=none;strokeColor=#FFF4F2;fontColor=#FFFFFF;" parent="1" vertex="1">
          <mxGeometry x="612" y="513" width="120" height="60" as="geometry" />
        </mxCell>
        <mxCell id="zmGrfXzdcfrjOC3Is10e-53" value="System Clock" style="text;html=1;align=center;verticalAlign=middle;whiteSpace=wrap;rounded=0;fontSize=16;fillColor=none;strokeColor=none;fontColor=#FFFFFF;" parent="1" vertex="1">
          <mxGeometry x="642" y="513" width="60" height="45" as="geometry" />
        </mxCell>
        <mxCell id="zmGrfXzdcfrjOC3Is10e-85" value="" style="edgeStyle=none;curved=1;rounded=0;orthogonalLoop=1;jettySize=auto;html=1;fontSize=12;startSize=8;endSize=8;fillColor=none;strokeColor=#FFF4F2;fontColor=#FFFFFF;" parent="1" source="zmGrfXzdcfrjOC3Is10e-54" target="zmGrfXzdcfrjOC3Is10e-53" edge="1">
          <mxGeometry relative="1" as="geometry" />
        </mxCell>
        <mxCell id="zmGrfXzdcfrjOC3Is10e-54" value="" style="rounded=0;whiteSpace=wrap;html=1;fillColor=none;strokeColor=#FFF4F2;fontColor=#FFFFFF;" parent="1" vertex="1">
          <mxGeometry x="607" y="382" width="120" height="60" as="geometry" />
        </mxCell>
        <mxCell id="zmGrfXzdcfrjOC3Is10e-55" value="Android Runtime" style="text;html=1;align=center;verticalAlign=middle;whiteSpace=wrap;rounded=0;fontSize=16;fillColor=none;strokeColor=none;fontColor=#FFFFFF;" parent="1" vertex="1">
          <mxGeometry x="628" y="394" width="60" height="30" as="geometry" />
        </mxCell>
        <mxCell id="zmGrfXzdcfrjOC3Is10e-60" value="" style="rounded=0;whiteSpace=wrap;html=1;fillColor=none;strokeColor=#FFF4F2;fontColor=#FFFFFF;" parent="1" vertex="1">
          <mxGeometry x="-205" y="286" width="120" height="60" as="geometry" />
        </mxCell>
        <mxCell id="zmGrfXzdcfrjOC3Is10e-61" value="" style="edgeStyle=none;curved=1;rounded=0;orthogonalLoop=1;jettySize=auto;html=1;fontSize=12;startSize=8;endSize=8;fillColor=none;strokeColor=#FFF4F2;fontColor=#FFFFFF;" parent="1" target="zmGrfXzdcfrjOC3Is10e-66" edge="1">
          <mxGeometry relative="1" as="geometry">
            <mxPoint x="-145" y="441" as="sourcePoint" />
          </mxGeometry>
        </mxCell>
        <mxCell id="zmGrfXzdcfrjOC3Is10e-62" value="&lt;div&gt;Local repository&lt;/div&gt;&lt;div&gt;&lt;br&gt;&lt;/div&gt;" style="text;html=1;align=center;verticalAlign=middle;whiteSpace=wrap;rounded=0;fontSize=16;fillColor=none;strokeColor=none;fontColor=#FFFFFF;" parent="1" vertex="1">
          <mxGeometry x="-174" y="314" width="52" height="25" as="geometry" />
        </mxCell>
        <mxCell id="zmGrfXzdcfrjOC3Is10e-63" value="" style="rounded=0;whiteSpace=wrap;html=1;fillColor=none;strokeColor=#FFF4F2;fontColor=#FFFFFF;" parent="1" vertex="1">
          <mxGeometry x="-205" y="379" width="120" height="60" as="geometry" />
        </mxCell>
        <mxCell id="zmGrfXzdcfrjOC3Is10e-64" value="Repository interface" style="text;html=1;align=center;verticalAlign=middle;whiteSpace=wrap;rounded=0;fontSize=16;fillColor=none;strokeColor=none;fontColor=#FFFFFF;" parent="1" vertex="1">
          <mxGeometry x="-175" y="394" width="60" height="30" as="geometry" />
        </mxCell>
        <mxCell id="zmGrfXzdcfrjOC3Is10e-65" value="" style="endArrow=classic;html=1;rounded=0;fontSize=12;startSize=8;endSize=8;exitX=0.511;exitY=1.367;exitDx=0;exitDy=0;exitPerimeter=0;fillColor=none;strokeColor=#FFF4F2;fontColor=#FFFFFF;" parent="1" edge="1">
          <mxGeometry width="50" height="50" relative="1" as="geometry">
            <mxPoint x="-145.11" y="346" as="sourcePoint" />
            <mxPoint x="-145.11" y="378" as="targetPoint" />
          </mxGeometry>
        </mxCell>
        <mxCell id="zmGrfXzdcfrjOC3Is10e-71" value="" style="edgeStyle=none;curved=1;rounded=0;orthogonalLoop=1;jettySize=auto;html=1;fontSize=12;startSize=8;endSize=8;entryX=0.513;entryY=0.008;entryDx=0;entryDy=0;entryPerimeter=0;fillColor=none;strokeColor=#FFF4F2;fontColor=#FFFFFF;" parent="1" source="zmGrfXzdcfrjOC3Is10e-66" target="zmGrfXzdcfrjOC3Is10e-68" edge="1">
          <mxGeometry relative="1" as="geometry">
            <mxPoint x="-139" y="607" as="targetPoint" />
          </mxGeometry>
        </mxCell>
        <mxCell id="zmGrfXzdcfrjOC3Is10e-66" value="" style="rounded=0;whiteSpace=wrap;html=1;fillColor=none;strokeColor=#FFF4F2;fontColor=#FFFFFF;" parent="1" vertex="1">
          <mxGeometry x="-205" y="484" width="122" height="89" as="geometry" />
        </mxCell>
        <mxCell id="zmGrfXzdcfrjOC3Is10e-67" value="Network API" style="text;html=1;align=center;verticalAlign=middle;whiteSpace=wrap;rounded=0;fontSize=16;fillColor=none;strokeColor=none;fontColor=#FFFFFF;" parent="1" vertex="1">
          <mxGeometry x="-174" y="511" width="60" height="30" as="geometry" />
        </mxCell>
        <mxCell id="zmGrfXzdcfrjOC3Is10e-68" value="" style="rounded=0;whiteSpace=wrap;html=1;fillColor=none;strokeColor=#FFF4F2;fontColor=#FFFFFF;" parent="1" vertex="1">
          <mxGeometry x="-203" y="621" width="120" height="60" as="geometry" />
        </mxCell>
        <mxCell id="zmGrfXzdcfrjOC3Is10e-70" value="Online recipie database" style="text;html=1;align=center;verticalAlign=middle;whiteSpace=wrap;rounded=0;fontSize=16;fillColor=none;strokeColor=none;fontColor=#FFFFFF;" parent="1" vertex="1">
          <mxGeometry x="-175" y="636" width="60" height="30" as="geometry" />
        </mxCell>
        <mxCell id="zmGrfXzdcfrjOC3Is10e-72" value="" style="rounded=0;whiteSpace=wrap;html=1;fillColor=none;strokeColor=#FFF4F2;fontColor=#FFFFFF;" parent="1" vertex="1">
          <mxGeometry x="-367" y="286" width="120" height="60" as="geometry" />
        </mxCell>
        <mxCell id="zmGrfXzdcfrjOC3Is10e-73" value="" style="edgeStyle=none;curved=1;rounded=0;orthogonalLoop=1;jettySize=auto;html=1;fontSize=12;startSize=8;endSize=8;fillColor=none;strokeColor=#FFF4F2;fontColor=#FFFFFF;" parent="1" target="zmGrfXzdcfrjOC3Is10e-79" edge="1">
          <mxGeometry relative="1" as="geometry">
            <mxPoint x="-307" y="441" as="sourcePoint" />
          </mxGeometry>
        </mxCell>
        <mxCell id="zmGrfXzdcfrjOC3Is10e-74" value="&lt;div&gt;Local repository&lt;/div&gt;&lt;div&gt;&lt;br&gt;&lt;/div&gt;" style="text;html=1;align=center;verticalAlign=middle;whiteSpace=wrap;rounded=0;fontSize=16;fillColor=none;strokeColor=none;fontColor=#FFFFFF;" parent="1" vertex="1">
          <mxGeometry x="-336" y="314" width="52" height="25" as="geometry" />
        </mxCell>
        <mxCell id="zmGrfXzdcfrjOC3Is10e-75" value="" style="rounded=0;whiteSpace=wrap;html=1;fillColor=none;strokeColor=#FFF4F2;fontColor=#FFFFFF;" parent="1" vertex="1">
          <mxGeometry x="-367" y="379" width="120" height="60" as="geometry" />
        </mxCell>
        <mxCell id="zmGrfXzdcfrjOC3Is10e-76" value="Repository interface" style="text;html=1;align=center;verticalAlign=middle;whiteSpace=wrap;rounded=0;fontSize=16;fillColor=none;strokeColor=none;fontColor=#FFFFFF;" parent="1" vertex="1">
          <mxGeometry x="-337" y="394" width="60" height="30" as="geometry" />
        </mxCell>
        <mxCell id="zmGrfXzdcfrjOC3Is10e-77" value="" style="endArrow=classic;html=1;rounded=0;fontSize=12;startSize=8;endSize=8;exitX=0.511;exitY=1.367;exitDx=0;exitDy=0;exitPerimeter=0;fillColor=none;strokeColor=#FFF4F2;fontColor=#FFFFFF;" parent="1" edge="1">
          <mxGeometry width="50" height="50" relative="1" as="geometry">
            <mxPoint x="-307.11" y="346" as="sourcePoint" />
            <mxPoint x="-307.11" y="378" as="targetPoint" />
          </mxGeometry>
        </mxCell>
        <mxCell id="zmGrfXzdcfrjOC3Is10e-78" value="" style="edgeStyle=none;curved=1;rounded=0;orthogonalLoop=1;jettySize=auto;html=1;fontSize=12;startSize=8;endSize=8;entryX=0.513;entryY=0.008;entryDx=0;entryDy=0;entryPerimeter=0;fillColor=none;strokeColor=#FFF4F2;fontColor=#FFFFFF;" parent="1" source="zmGrfXzdcfrjOC3Is10e-79" target="zmGrfXzdcfrjOC3Is10e-81" edge="1">
          <mxGeometry relative="1" as="geometry">
            <mxPoint x="-301" y="607" as="targetPoint" />
          </mxGeometry>
        </mxCell>
        <mxCell id="zmGrfXzdcfrjOC3Is10e-79" value="" style="rounded=0;whiteSpace=wrap;html=1;fillColor=none;strokeColor=#FFF4F2;fontColor=#FFFFFF;" parent="1" vertex="1">
          <mxGeometry x="-367" y="484" width="122" height="89" as="geometry" />
        </mxCell>
        <mxCell id="zmGrfXzdcfrjOC3Is10e-80" value="Network API" style="text;html=1;align=center;verticalAlign=middle;whiteSpace=wrap;rounded=0;fontSize=16;fillColor=none;strokeColor=none;fontColor=#FFFFFF;" parent="1" vertex="1">
          <mxGeometry x="-336" y="511" width="60" height="30" as="geometry" />
        </mxCell>
        <mxCell id="zmGrfXzdcfrjOC3Is10e-81" value="" style="rounded=0;whiteSpace=wrap;html=1;fillColor=none;strokeColor=#FFF4F2;fontColor=#FFFFFF;" parent="1" vertex="1">
          <mxGeometry x="-365" y="621" width="120" height="60" as="geometry" />
        </mxCell>
        <mxCell id="zmGrfXzdcfrjOC3Is10e-83" value="External App(For encouragement)" style="text;html=1;align=center;verticalAlign=middle;whiteSpace=wrap;rounded=0;fontSize=16;fillColor=none;strokeColor=none;fontColor=#FFFFFF;" parent="1" vertex="1">
          <mxGeometry x="-335" y="636" width="60" height="30" as="geometry" />
        </mxCell>
        <mxCell id="zmGrfXzdcfrjOC3Is10e-86" value="" style="rounded=0;whiteSpace=wrap;html=1;fillColor=none;strokeColor=#FFF4F2;fontColor=#FFFFFF;" parent="1" vertex="1">
          <mxGeometry x="765" y="518" width="120" height="60" as="geometry" />
        </mxCell>
        <mxCell id="zmGrfXzdcfrjOC3Is10e-87" value="Movement/Accelerometer" style="text;html=1;align=center;verticalAlign=middle;whiteSpace=wrap;rounded=0;fontSize=16;fillColor=none;strokeColor=none;fontColor=#FFFFFF;" parent="1" vertex="1">
          <mxGeometry x="789" y="531" width="60" height="30" as="geometry" />
        </mxCell>
        <mxCell id="zmGrfXzdcfrjOC3Is10e-88" value="" style="rounded=0;whiteSpace=wrap;html=1;fillColor=none;strokeColor=#FFF4F2;fontColor=#FFFFFF;" parent="1" vertex="1">
          <mxGeometry x="918" y="521" width="120" height="60" as="geometry" />
        </mxCell>
        <mxCell id="zmGrfXzdcfrjOC3Is10e-89" value="GPS" style="text;html=1;align=center;verticalAlign=middle;whiteSpace=wrap;rounded=0;fontSize=16;fillColor=none;strokeColor=none;fontColor=#FFFFFF;" parent="1" vertex="1">
          <mxGeometry x="948" y="536" width="60" height="30" as="geometry" />
        </mxCell>
        <mxCell id="zmGrfXzdcfrjOC3Is10e-90" value="" style="endArrow=classic;html=1;rounded=0;fontSize=12;startSize=8;endSize=8;curved=1;exitX=1;exitY=0.5;exitDx=0;exitDy=0;entryX=0.5;entryY=0;entryDx=0;entryDy=0;fillColor=none;strokeColor=#FFF4F2;fontColor=#FFFFFF;" parent="1" source="zmGrfXzdcfrjOC3Is10e-54" target="zmGrfXzdcfrjOC3Is10e-86" edge="1">
          <mxGeometry width="50" height="50" relative="1" as="geometry">
            <mxPoint x="809" y="360" as="sourcePoint" />
            <mxPoint x="859" y="310" as="targetPoint" />
          </mxGeometry>
        </mxCell>
        <mxCell id="zmGrfXzdcfrjOC3Is10e-91" value="" style="endArrow=classic;html=1;rounded=0;fontSize=12;startSize=8;endSize=8;curved=1;exitX=1;exitY=0.5;exitDx=0;exitDy=0;entryX=0.5;entryY=0;entryDx=0;entryDy=0;fillColor=none;strokeColor=#FFF4F2;fontColor=#FFFFFF;" parent="1" source="zmGrfXzdcfrjOC3Is10e-54" target="zmGrfXzdcfrjOC3Is10e-88" edge="1">
          <mxGeometry width="50" height="50" relative="1" as="geometry">
            <mxPoint x="809" y="360" as="sourcePoint" />
            <mxPoint x="859" y="310" as="targetPoint" />
          </mxGeometry>
        </mxCell>
        <mxCell id="zmGrfXzdcfrjOC3Is10e-95" value="" style="rounded=0;whiteSpace=wrap;html=1;fillColor=none;strokeColor=#FFF4F2;fontColor=#FFFFFF;" parent="1" vertex="1">
          <mxGeometry x="39" y="-224" width="120" height="60" as="geometry" />
        </mxCell>
        <mxCell id="zmGrfXzdcfrjOC3Is10e-96" value="&lt;div&gt;Main Screen&lt;/div&gt;&lt;div&gt;&lt;br&gt;&lt;/div&gt;" style="text;html=1;align=center;verticalAlign=middle;whiteSpace=wrap;rounded=0;fontSize=16;fillColor=none;strokeColor=none;fontColor=#FFFFFF;" parent="1" vertex="1">
          <mxGeometry x="65" y="-198" width="60" height="30" as="geometry" />
        </mxCell>
        <mxCell id="zmGrfXzdcfrjOC3Is10e-98" value="" style="rounded=0;whiteSpace=wrap;html=1;fillColor=none;strokeColor=#FFF4F2;fontColor=#FFFFFF;" parent="1" vertex="1">
          <mxGeometry x="-114" y="-76" width="120" height="60" as="geometry" />
        </mxCell>
        <mxCell id="zmGrfXzdcfrjOC3Is10e-99" value="&lt;div&gt;HydrationUiSate&lt;/div&gt;&lt;div&gt;&lt;br&gt;&lt;/div&gt;" style="text;html=1;align=center;verticalAlign=middle;whiteSpace=wrap;rounded=0;fontSize=16;fillColor=none;strokeColor=none;fontColor=#FFFFFF;" parent="1" vertex="1">
          <mxGeometry x="-84" y="-61" width="60" height="30" as="geometry" />
        </mxCell>
        <mxCell id="zmGrfXzdcfrjOC3Is10e-100" value="" style="rounded=0;whiteSpace=wrap;html=1;fillColor=none;strokeColor=#FFF4F2;fontColor=#FFFFFF;" parent="1" vertex="1">
          <mxGeometry x="38" y="-78" width="120" height="60" as="geometry" />
        </mxCell>
        <mxCell id="zmGrfXzdcfrjOC3Is10e-101" value="&lt;div&gt;MealTimeUiSate&lt;/div&gt;&lt;div&gt;&lt;br&gt;&lt;/div&gt;" style="text;html=1;align=center;verticalAlign=middle;whiteSpace=wrap;rounded=0;fontSize=16;fillColor=none;strokeColor=none;fontColor=#FFFFFF;" parent="1" vertex="1">
          <mxGeometry x="68" y="-63" width="60" height="30" as="geometry" />
        </mxCell>
        <mxCell id="zmGrfXzdcfrjOC3Is10e-102" value="" style="rounded=0;whiteSpace=wrap;html=1;fillColor=none;strokeColor=#FFF4F2;fontColor=#FFFFFF;" parent="1" vertex="1">
          <mxGeometry x="196" y="-78" width="120" height="60" as="geometry" />
        </mxCell>
        <mxCell id="zmGrfXzdcfrjOC3Is10e-103" value="&lt;div&gt;ActivityUiSate&lt;/div&gt;&lt;div&gt;&lt;br&gt;&lt;/div&gt;" style="text;html=1;align=center;verticalAlign=middle;whiteSpace=wrap;rounded=0;fontSize=16;fillColor=none;strokeColor=none;fontColor=#FFFFFF;" parent="1" vertex="1">
          <mxGeometry x="226" y="-63" width="60" height="30" as="geometry" />
        </mxCell>
        <mxCell id="zmGrfXzdcfrjOC3Is10e-104" value="" style="rounded=0;whiteSpace=wrap;html=1;fillColor=none;strokeColor=#FFF4F2;fontColor=#FFFFFF;" parent="1" vertex="1">
          <mxGeometry x="331" y="-76" width="172" height="57" as="geometry" />
        </mxCell>
        <mxCell id="zmGrfXzdcfrjOC3Is10e-105" value="&lt;div&gt;EncouragementUiState&lt;/div&gt;&lt;div&gt;&lt;br&gt;&lt;/div&gt;" style="text;html=1;align=center;verticalAlign=middle;whiteSpace=wrap;rounded=0;fontSize=16;fillColor=none;strokeColor=none;fontColor=#FFFFFF;" parent="1" vertex="1">
          <mxGeometry x="388" y="-61" width="60" height="30" as="geometry" />
        </mxCell>
        <mxCell id="zmGrfXzdcfrjOC3Is10e-106" value="" style="rounded=0;whiteSpace=wrap;html=1;fillColor=none;strokeColor=#FFF4F2;fontColor=#FFFFFF;" parent="1" vertex="1">
          <mxGeometry x="-266" y="-78" width="120" height="60" as="geometry" />
        </mxCell>
        <mxCell id="zmGrfXzdcfrjOC3Is10e-107" value="&lt;div&gt;FruitVegUiSate&lt;/div&gt;&lt;div&gt;&lt;br&gt;&lt;/div&gt;" style="text;html=1;align=center;verticalAlign=middle;whiteSpace=wrap;rounded=0;fontSize=16;fillColor=none;strokeColor=none;fontColor=#FFFFFF;" parent="1" vertex="1">
          <mxGeometry x="-236" y="-63" width="60" height="30" as="geometry" />
        </mxCell>
        <mxCell id="zmGrfXzdcfrjOC3Is10e-108" value="" style="endArrow=classic;html=1;rounded=0;fontSize=12;startSize=8;endSize=8;curved=1;exitX=0.5;exitY=1;exitDx=0;exitDy=0;entryX=0.5;entryY=0;entryDx=0;entryDy=0;fillColor=none;strokeColor=#FFF4F2;fontColor=#FFFFFF;" parent="1" source="zmGrfXzdcfrjOC3Is10e-106" target="zmGrfXzdcfrjOC3Is10e-9" edge="1">
          <mxGeometry width="50" height="50" relative="1" as="geometry">
            <mxPoint x="-48" y="90" as="sourcePoint" />
            <mxPoint x="2" y="40" as="targetPoint" />
          </mxGeometry>
        </mxCell>
        <mxCell id="zmGrfXzdcfrjOC3Is10e-109" value="" style="endArrow=classic;html=1;rounded=0;fontSize=12;startSize=8;endSize=8;curved=1;exitX=0.5;exitY=1;exitDx=0;exitDy=0;fillColor=none;strokeColor=#FFF4F2;fontColor=#FFFFFF;" parent="1" source="zmGrfXzdcfrjOC3Is10e-98" edge="1">
          <mxGeometry width="50" height="50" relative="1" as="geometry">
            <mxPoint x="-30" y="101" as="sourcePoint" />
            <mxPoint x="130" y="27" as="targetPoint" />
          </mxGeometry>
        </mxCell>
        <mxCell id="zmGrfXzdcfrjOC3Is10e-111" value="" style="endArrow=classic;html=1;rounded=0;fontSize=12;startSize=8;endSize=8;curved=1;exitX=0.5;exitY=1;exitDx=0;exitDy=0;fillColor=none;strokeColor=#FFF4F2;fontColor=#FFFFFF;" parent="1" source="zmGrfXzdcfrjOC3Is10e-100" edge="1">
          <mxGeometry width="50" height="50" relative="1" as="geometry">
            <mxPoint x="-30" y="101" as="sourcePoint" />
            <mxPoint x="132" y="27" as="targetPoint" />
          </mxGeometry>
        </mxCell>
        <mxCell id="zmGrfXzdcfrjOC3Is10e-112" value="" style="endArrow=classic;html=1;rounded=0;fontSize=12;startSize=8;endSize=8;curved=1;exitX=0.5;exitY=1;exitDx=0;exitDy=0;entryX=0.5;entryY=0;entryDx=0;entryDy=0;fillColor=none;strokeColor=#FFF4F2;fontColor=#FFFFFF;" parent="1" source="zmGrfXzdcfrjOC3Is10e-102" target="zmGrfXzdcfrjOC3Is10e-9" edge="1">
          <mxGeometry width="50" height="50" relative="1" as="geometry">
            <mxPoint x="64" y="93" as="sourcePoint" />
            <mxPoint x="114" y="43" as="targetPoint" />
          </mxGeometry>
        </mxCell>
        <mxCell id="zmGrfXzdcfrjOC3Is10e-113" value="" style="endArrow=classic;html=1;rounded=0;fontSize=12;startSize=8;endSize=8;curved=1;exitX=0.5;exitY=1;exitDx=0;exitDy=0;entryX=0.566;entryY=-0.004;entryDx=0;entryDy=0;entryPerimeter=0;fillColor=none;strokeColor=#FFF4F2;fontColor=#FFFFFF;" parent="1" source="zmGrfXzdcfrjOC3Is10e-104" target="zmGrfXzdcfrjOC3Is10e-9" edge="1">
          <mxGeometry width="50" height="50" relative="1" as="geometry">
            <mxPoint x="175" y="93" as="sourcePoint" />
            <mxPoint x="225" y="43" as="targetPoint" />
          </mxGeometry>
        </mxCell>
        <mxCell id="bbM1P2KkSC1n9c1nvgKo-3" value="" style="endArrow=none;html=1;rounded=0;fillColor=none;strokeColor=#FFF4F2;fontColor=#FFFFFF;" edge="1" parent="1" target="zmGrfXzdcfrjOC3Is10e-96">
          <mxGeometry width="50" height="50" relative="1" as="geometry">
            <mxPoint x="98" y="-123" as="sourcePoint" />
            <mxPoint x="95" y="-152" as="targetPoint" />
          </mxGeometry>
        </mxCell>
        <mxCell id="bbM1P2KkSC1n9c1nvgKo-4" value="" style="endArrow=none;html=1;rounded=0;fillColor=none;strokeColor=#FFF4F2;fontColor=#FFFFFF;" edge="1" parent="1">
          <mxGeometry width="50" height="50" relative="1" as="geometry">
            <mxPoint x="-206" y="-123" as="sourcePoint" />
            <mxPoint x="417" y="-123" as="targetPoint" />
          </mxGeometry>
        </mxCell>
        <mxCell id="bbM1P2KkSC1n9c1nvgKo-6" value="" style="endArrow=classic;html=1;rounded=0;entryX=0.5;entryY=0;entryDx=0;entryDy=0;fillColor=none;strokeColor=#FFF4F2;fontColor=#FFFFFF;" edge="1" parent="1" target="zmGrfXzdcfrjOC3Is10e-106">
          <mxGeometry width="50" height="50" relative="1" as="geometry">
            <mxPoint x="-206" y="-123" as="sourcePoint" />
            <mxPoint x="-69" y="-31" as="targetPoint" />
          </mxGeometry>
        </mxCell>
        <mxCell id="bbM1P2KkSC1n9c1nvgKo-9" value="" style="endArrow=classic;html=1;rounded=0;entryX=0.5;entryY=0;entryDx=0;entryDy=0;fillColor=none;strokeColor=#FFF4F2;fontColor=#FFFFFF;" edge="1" parent="1">
          <mxGeometry width="50" height="50" relative="1" as="geometry">
            <mxPoint x="-54.129999999999995" y="-123" as="sourcePoint" />
            <mxPoint x="-54.129999999999995" y="-78" as="targetPoint" />
          </mxGeometry>
        </mxCell>
        <mxCell id="bbM1P2KkSC1n9c1nvgKo-10" value="" style="endArrow=classic;html=1;rounded=0;entryX=0.5;entryY=0;entryDx=0;entryDy=0;fillColor=none;strokeColor=#FFF4F2;fontColor=#FFFFFF;" edge="1" parent="1">
          <mxGeometry width="50" height="50" relative="1" as="geometry">
            <mxPoint x="97.75999999999999" y="-123" as="sourcePoint" />
            <mxPoint x="97.75999999999999" y="-78" as="targetPoint" />
          </mxGeometry>
        </mxCell>
        <mxCell id="bbM1P2KkSC1n9c1nvgKo-11" value="" style="endArrow=classic;html=1;rounded=0;entryX=0.5;entryY=0;entryDx=0;entryDy=0;fillColor=none;strokeColor=#FFF4F2;fontColor=#FFFFFF;" edge="1" parent="1">
          <mxGeometry width="50" height="50" relative="1" as="geometry">
            <mxPoint x="253" y="-123" as="sourcePoint" />
            <mxPoint x="253" y="-78" as="targetPoint" />
          </mxGeometry>
        </mxCell>
        <mxCell id="bbM1P2KkSC1n9c1nvgKo-12" value="" style="endArrow=classic;html=1;rounded=0;entryX=0.5;entryY=0;entryDx=0;entryDy=0;fillColor=none;strokeColor=#FFF4F2;fontColor=#FFFFFF;" edge="1" parent="1">
          <mxGeometry width="50" height="50" relative="1" as="geometry">
            <mxPoint x="416.76" y="-123" as="sourcePoint" />
            <mxPoint x="416.76" y="-78" as="targetPoint" />
          </mxGeometry>
        </mxCell>
        <mxCell id="bbM1P2KkSC1n9c1nvgKo-14" value="" style="endArrow=none;html=1;rounded=0;fillColor=none;strokeColor=#FFF4F2;fontColor=#FFFFFF;" edge="1" parent="1">
          <mxGeometry width="50" height="50" relative="1" as="geometry">
            <mxPoint x="-305" y="241" as="sourcePoint" />
            <mxPoint x="475.42" y="240" as="targetPoint" />
          </mxGeometry>
        </mxCell>
        <mxCell id="bbM1P2KkSC1n9c1nvgKo-15" value="" style="endArrow=classic;html=1;rounded=0;entryX=0.5;entryY=0;entryDx=0;entryDy=0;fillColor=none;strokeColor=#FFF4F2;fontColor=#FFFFFF;" edge="1" parent="1">
          <mxGeometry width="50" height="50" relative="1" as="geometry">
            <mxPoint x="-147.57999999999998" y="240" as="sourcePoint" />
            <mxPoint x="-147.57999999999998" y="285" as="targetPoint" />
          </mxGeometry>
        </mxCell>
        <mxCell id="bbM1P2KkSC1n9c1nvgKo-16" value="" style="endArrow=classic;html=1;rounded=0;entryX=0.5;entryY=0;entryDx=0;entryDy=0;fillColor=none;strokeColor=#FFF4F2;fontColor=#FFFFFF;" edge="1" parent="1">
          <mxGeometry width="50" height="50" relative="1" as="geometry">
            <mxPoint x="4.290000000000006" y="240" as="sourcePoint" />
            <mxPoint x="4.290000000000006" y="285" as="targetPoint" />
          </mxGeometry>
        </mxCell>
        <mxCell id="bbM1P2KkSC1n9c1nvgKo-17" value="" style="endArrow=classic;html=1;rounded=0;entryX=0.5;entryY=0;entryDx=0;entryDy=0;exitX=0.635;exitY=0.999;exitDx=0;exitDy=0;exitPerimeter=0;fillColor=none;strokeColor=#FFF4F2;fontColor=#FFFFFF;" edge="1" parent="1" source="zmGrfXzdcfrjOC3Is10e-9">
          <mxGeometry width="50" height="50" relative="1" as="geometry">
            <mxPoint x="156.18" y="240" as="sourcePoint" />
            <mxPoint x="156.18" y="285" as="targetPoint" />
          </mxGeometry>
        </mxCell>
        <mxCell id="bbM1P2KkSC1n9c1nvgKo-18" value="" style="endArrow=classic;html=1;rounded=0;entryX=0.5;entryY=0;entryDx=0;entryDy=0;fillColor=none;strokeColor=#FFF4F2;fontColor=#FFFFFF;" edge="1" parent="1">
          <mxGeometry width="50" height="50" relative="1" as="geometry">
            <mxPoint x="311.42" y="240" as="sourcePoint" />
            <mxPoint x="311.42" y="285" as="targetPoint" />
          </mxGeometry>
        </mxCell>
        <mxCell id="bbM1P2KkSC1n9c1nvgKo-19" value="" style="endArrow=classic;html=1;rounded=0;entryX=0.5;entryY=0;entryDx=0;entryDy=0;fillColor=none;strokeColor=#FFF4F2;fontColor=#FFFFFF;" edge="1" parent="1">
          <mxGeometry width="50" height="50" relative="1" as="geometry">
            <mxPoint x="475.18" y="240" as="sourcePoint" />
            <mxPoint x="475.18" y="285" as="targetPoint" />
          </mxGeometry>
        </mxCell>
        <mxCell id="bbM1P2KkSC1n9c1nvgKo-20" value="" style="endArrow=classic;html=1;rounded=0;entryX=0.5;entryY=0;entryDx=0;entryDy=0;fillColor=none;strokeColor=#FFF4F2;fontColor=#FFFFFF;" edge="1" parent="1">
          <mxGeometry width="50" height="50" relative="1" as="geometry">
            <mxPoint x="-305.16999999999996" y="241" as="sourcePoint" />
            <mxPoint x="-305.16999999999996" y="286" as="targetPoint" />
          </mxGeometry>
        </mxCell>
      </root>
    </mxGraphModel>
  </diagram>
</mxfile>
